<?xml version="1.0" encoding="utf-8"?>
<!-- Generator: Adobe Illustrator 16.0.0, SVG Export Plug-In . SVG Version: 6.00 Build 0)  -->
<!DOCTYPE svg PUBLIC "-//W3C//DTD SVG 1.1//EN" "http://www.w3.org/Graphics/SVG/1.1/DTD/svg11.dtd">
<svg version="1.1" id="Layer_1" xmlns="http://www.w3.org/2000/svg" xmlns:xlink="http://www.w3.org/1999/xlink" x="0px" y="0px"
	 width="270px" height="70px" viewBox="-43 -12.5 270 70" enable-background="new -43 -12.5 270 70" xml:space="preserve">
<g>
	<g>
		<path fill="#FFFFFF" d="M68.193,12.862c-1.003-1.009-2.332-1.744-3.991-2.202s-3.72-0.687-6.183-0.686H45.729l0.018,25.232h12.29
			c2.464,0,4.525-0.237,6.183-0.71c1.656-0.475,2.987-1.216,3.991-2.226c0.997-1.011,1.711-2.313,2.136-3.912
			c0.428-1.602,0.641-3.536,0.636-5.807c0-2.265-0.214-4.193-0.644-5.785C69.908,15.178,69.194,13.876,68.193,12.862z
			 M61.586,26.593c0,0.919-0.261,1.507-0.786,1.767c-0.523,0.257-1.395,0.388-2.616,0.39h-3.659V16.437h3.659
			c1.219,0,2.091,0.127,2.616,0.385c0.525,0.257,0.787,0.845,0.787,1.764L61.586,26.593z"/>
		<path fill="#FFFFFF" d="M81.701,28.734v-3.062h8.78v-5.855h-8.78v-3.399h9.677l0.855-6.46L76.282,9.969
			c-1.168,0-2.02,0.129-2.559,0.388c-0.54,0.259-0.807,0.848-0.805,1.768v1.501v8.995v12.584l18.663-0.012l0.868-6.459
			L81.701,28.734z"/>
		<path fill="#FFFFFF" d="M124.048,9.937l-3.392,12.854h-0.33l-3.411-12.852l-11.451,0.006l-1.663,25.236l9.18-0.008l0.507-12.246
			h0.254l3.411,12.245l6.694-0.004l3.355-12.25h0.292l0.521,12.247l9.181-0.007L135.53,9.926L124.048,9.937z"/>
		<path fill="#FFFFFF" d="M148.126,25.633h8.779v-5.852h-8.779v-3.398h9.677l0.855-6.459H142.71c-1.412,0-2.026,0.128-2.563,0.389
			c-0.533,0.26-0.804,0.847-0.804,1.768v3.317v7.179v12.583l18.664-0.013l0.865-6.459H148.12L148.126,25.633z"/>
		<path fill="#FFFFFF" d="M170.246,9.906h-5.415c-1.354,0-2.021,0.133-2.558,0.39s-0.807,0.849-0.807,1.768v2.321v8.176v12.583
			h15.381l0.866-6.461h-7.475L170.246,9.906z"/>
		<path fill="#FFFFFF" d="M187.948,9.896h-5.413c-1.171,0-2.023,0.129-2.562,0.39c-0.533,0.26-0.801,0.849-0.801,1.767v2.546v7.951
			v12.583h15.38l0.866-6.458h-7.474L187.948,9.896z"/>
		<path fill="#FFFFFF" d="M221.348,16.556c-0.427-1.671-1.146-3.045-2.159-4.119c-1.076-1.113-2.452-1.938-3.99-2.387
			c-1.647-0.517-3.704-0.772-6.166-0.771c-2.438,0-4.486,0.26-6.146,0.779c-1.544,0.447-2.923,1.273-4.002,2.392
			c-1.013,1.076-1.734,2.45-2.158,4.118c-0.425,1.669-0.64,3.659-0.64,5.973c-0.023,1.936,0.175,3.869,0.592,5.766
			c0.319,1.509,1.032,2.924,2.07,4.12c1.063,1.146,2.441,2.002,3.99,2.473c1.671,0.549,3.774,0.824,6.31,0.824
			c2.543,0,4.643-0.275,6.309-0.824c1.55-0.47,2.93-1.324,3.992-2.473c1.035-1.196,1.746-2.611,2.064-4.12
			c0.414-1.896,0.608-3.829,0.583-5.766C222.028,20.529,221.812,18.521,221.348,16.556z M212.596,26.669
			c0,0.921-0.262,1.511-0.787,1.767c-0.521,0.259-1.396,0.392-2.61,0.392h-3.661V18.324c0-0.918,0.271-1.508,0.807-1.768
			s1.392-0.39,2.562-0.39h3.677L212.596,26.669z"/>
	</g>
	<g>
		<path fill="#FFFFFF" d="M32.38,15.307c-0.318-0.62-1.13-0.873-1.885-0.582c-0.321,0.124-0.652,0.346-1.036,0.604
			c-1.129,0.76-2.673,1.797-5.499,1.319c-0.039-0.007-0.079,0.002-0.112,0.021c-0.034,0.02-0.061,0.051-0.073,0.087
			c-0.014,0.037-0.014,0.079,0.001,0.115c0.013,0.036,0.04,0.067,0.075,0.086c1.342,0.748,3.127,1.269,4.753,1.269
			c1.03,0,1.996-0.208,2.746-0.699C32.545,16.739,32.666,15.865,32.38,15.307z"/>
		<path fill="#FFFFFF" d="M24.179,19.871c-0.025-0.002-0.047,0.002-0.067,0.018c-0.021,0.014-0.035,0.033-0.041,0.057
			c-0.005,0.023-0.004,0.047,0.006,0.069c0.011,0.022,0.028,0.038,0.049,0.048c1.563,0.737,1.97,1.785,2.267,2.551
			c0.078,0.229,0.179,0.447,0.304,0.653c0.086,0.134,0.202,0.243,0.338,0.322c0.137,0.077,0.29,0.122,0.449,0.127
			c0.12-0.001,0.24-0.03,0.347-0.09c0.336-0.177,0.58-0.652,0.258-1.454C27.57,20.881,25.686,20.021,24.179,19.871z"/>
		<path fill="#FFFFFF" d="M-29.449,16.651c-2.824,0.476-4.37-0.563-5.5-1.319c-0.384-0.258-0.714-0.481-1.036-0.604
			c-0.756-0.291-1.565-0.039-1.885,0.582c-0.287,0.56-0.168,1.438,1.029,2.219c0.748,0.491,1.714,0.699,2.746,0.699
			c1.626,0,3.412-0.519,4.753-1.267c0.035-0.021,0.061-0.05,0.076-0.087c0.013-0.037,0.015-0.077,0.001-0.115
			c-0.013-0.036-0.039-0.068-0.073-0.089c-0.034-0.021-0.075-0.029-0.114-0.021h0.002V16.651z"/>
		<path fill="#FFFFFF" d="M-33.576,22.175c-0.322,0.797-0.077,1.276,0.258,1.454c0.107,0.059,0.226,0.089,0.348,0.089
			c0.157-0.005,0.312-0.049,0.449-0.126c0.136-0.079,0.252-0.188,0.337-0.321c0.124-0.207,0.226-0.427,0.304-0.656
			c0.297-0.765,0.703-1.811,2.266-2.549c0.022-0.011,0.038-0.027,0.049-0.049c0.008-0.022,0.011-0.046,0.004-0.069
			c-0.005-0.022-0.021-0.042-0.04-0.055c-0.019-0.014-0.042-0.021-0.066-0.018C-31.173,20.021-33.056,20.881-33.576,22.175z"/>
		<path fill="#FFFFFF" d="M16.938,17.081c-0.428,0.099-2.306,0.254-4.24-1.115c-0.797-0.568-1.487-1.132-2.09-1.629
			c-1.49-1.229-2.667-2.195-4.48-2.364c-4.244-0.394-5.879,3.2-6.057,4.112c-0.014,0.077-0.045,0.237,0.09,0.307
			c0.135,0.07,0.229-0.022,0.43-0.229c0.582-0.598,2.128-2.19,5.345-2.115c2.297,0.052,3.552,0.856,5.836,2.318l0.349,0.222
			c1.208,0.771,2.611,1.012,3.625,1.012c0.666,0,1.159-0.112,1.336-0.22C17.259,17.269,17.134,17.038,16.938,17.081z"/>
		<path fill="#FFFFFF" d="M-11.611,11.973c-1.815,0.169-2.993,1.137-4.483,2.364c-0.604,0.497-1.29,1.063-2.091,1.629
			c-1.93,1.369-3.814,1.214-4.24,1.115c-0.191-0.043-0.313,0.19-0.141,0.299c0.173,0.106,0.671,0.22,1.334,0.22
			c1.015,0,2.416-0.236,3.632-1.012l0.348-0.222c2.284-1.462,3.542-2.267,5.836-2.318c3.218-0.073,4.764,1.518,5.344,2.115
			c0.201,0.207,0.293,0.301,0.43,0.229c0.139-0.071,0.102-0.229,0.09-0.307C-5.732,15.173-7.369,11.579-11.611,11.973z"/>
		<path fill="#FFFFFF" d="M18.66,13.791c-3.139,0-4.992-2.387-6.784-4.696c-1.734-2.229-3.529-4.536-6.457-4.536
			c-1.598,0-5.529,0.708-8.162,7.13c-2.632-6.427-6.568-7.13-8.16-7.13c-2.932,0-4.726,2.303-6.458,4.539
			c-1.791,2.303-3.645,4.696-6.784,4.696c-0.041,0-0.081,0.015-0.11,0.042c-0.031,0.028-0.05,0.065-0.055,0.104
			c-0.004,0.041,0.005,0.082,0.029,0.116c0.024,0.032,0.059,0.058,0.1,0.065c3.365,0.785,5.508-1.036,7.581-2.793
			c1.63-1.384,3.17-2.693,5.226-2.701c1.931,0,3.187,0.6,4.637,2.248c0.166,0.19,0.327,0.375,0.484,0.555
			c1.251,1.443,2.239,2.583,3.515,2.583c1.313,0,2.36-1.198,3.685-2.716l0.368-0.422c1.47-1.668,2.68-2.248,4.583-2.248
			c2.056,0.008,3.594,1.315,5.227,2.701c1.73,1.469,3.513,2.981,6.014,2.981c0.527-0.002,1.053-0.064,1.566-0.188
			c0.04-0.008,0.074-0.032,0.098-0.065c0.025-0.034,0.032-0.075,0.031-0.116c-0.006-0.039-0.026-0.077-0.056-0.104
			c-0.029-0.026-0.07-0.042-0.109-0.042L18.66,13.791z"/>
		<path fill="#FFFFFF" d="M15.088-1.104c-2.147-2.619-4.891-4.685-8-6.026C5.536-7.797,3.916-8.293,2.254-8.61
			c-3.298-0.629-6.687-0.629-9.986,0c-1.66,0.317-3.28,0.813-4.833,1.48c-3.109,1.342-5.854,3.407-8.001,6.026
			c-2.123,2.583-3.788,5.655-4.746,8.748c-2.942,9.51,0,20.514,1.851,25.399c1.685,4.442,4.123,9.869,6.541,10.496
			c2.088,5.229,7.862,10.542,14.193,10.542c5.744,0,12.248-5.313,14.325-10.59c2.367-0.817,4.739-6.102,6.388-10.446
			c1.851-4.885,4.791-15.89,1.851-25.4C18.872,4.552,17.207,1.479,15.088-1.104z M9.925,44.376C7.624,48.76,2,53.018-2.73,53.018
			c-5.311,0-10.356-4.26-12.646-8.65c-0.04-0.08-0.062-0.167-0.062-0.256c-0.001-0.089,0.018-0.178,0.056-0.256
			c0.038-0.082,0.094-0.152,0.163-0.207c0.069-0.056,0.151-0.093,0.237-0.113c0.548-0.132,1.043-0.422,1.426-0.831
			c0.84-0.916,1.091-2.382,0.688-4.026l-0.047-0.186c-0.016-0.061-0.014-0.127,0.009-0.185c0.022-0.06,0.062-0.112,0.115-0.146
			c0.052-0.033,0.114-0.056,0.179-0.054c0.063,0.001,0.125,0.025,0.174,0.062c2.568,1.863,6.125,3.331,9.729,3.331
			c3.536,0,6.969-1.404,9.49-3.239C6.845,38.219,6.922,38.193,7,38.19c0.08,0,0.156,0.025,0.222,0.066
			c0.064,0.047,0.114,0.108,0.142,0.183c0.03,0.071,0.034,0.154,0.016,0.23v0.008c-0.404,1.645-0.153,3.11,0.688,4.026
			c0.391,0.419,0.897,0.712,1.457,0.843c0.086,0.017,0.168,0.055,0.238,0.112c0.069,0.056,0.126,0.124,0.163,0.205
			c0.038,0.08,0.057,0.168,0.057,0.257C9.983,44.211,9.963,44.296,9.925,44.376z M-14.324,34.461
			c-0.11-0.266-0.214-0.514-0.307-0.726c-0.502-1.127-0.576-1.999-0.203-2.391c0.373-0.393,1.512-0.57,3.544,0.187
			c3.216,1.202,5.906,1.762,8.545,1.762c2.642,0,5.329-0.56,8.546-1.762c2.03-0.757,3.162-0.592,3.543-0.187
			c0.384,0.404,0.301,1.268-0.202,2.391c-0.146,0.327-0.315,0.742-0.493,1.196c-2.071,2.702-6.615,5.417-11.361,5.417
			c-4.3,0-8.516-2.237-10.8-4.608C-13.858,35.37-14.136,34.938-14.324,34.461z M17.401,31.03c-0.177,0.613-0.355,1.169-0.517,1.651
			c-2.04,6.07-4.517,9.561-5.809,9.767c-0.97,0.15-1.694-0.023-2.156-0.525c-0.568-0.614-0.722-1.724-0.419-2.968
			c0.279-1.131,1.167-3.558,1.697-4.75c0.911-2.045,0.495-3.116-0.011-3.657c-0.863-0.913-2.519-0.948-4.791-0.1
			c-3.082,1.151-5.643,1.688-8.141,1.688c-2.5,0-5.056-0.535-8.142-1.688c-2.271-0.847-3.927-0.813-4.791,0.1
			c-0.508,0.541-0.922,1.613-0.012,3.657c0.117,0.264,0.575,1.451,0.608,1.497c0.443,1.158,0.901,2.496,1.089,3.253
			c0.305,1.243,0.149,2.357-0.417,2.971c-0.461,0.502-1.187,0.677-2.156,0.524c-1.292-0.208-3.767-3.698-5.811-9.766
			c-0.159-0.468-0.328-1.01-0.5-1.605c-0.025-0.087-0.029-0.181-0.01-0.27c0.019-0.093,0.059-0.175,0.117-0.247
			c0.06-0.072,0.133-0.127,0.217-0.163c0.086-0.032,0.179-0.049,0.27-0.041l0.412,0.032c2.383,0.197,2.761-2.461,2.94-3.739
			c0.748-5.294,4.375-7.657,7.653-7.657h0.035c0.567,0,2.488,0.108,3.384,1.328c0.563,0.768,0.631,1.861,0.2,3.265
			c-0.569,1.847-0.342,3.42,0.266,4.48c0.042,0.081,0.062,0.17,0.056,0.26c-0.004,0.092-0.035,0.177-0.085,0.253
			c-0.051,0.074-0.122,0.131-0.203,0.171c-0.083,0.036-0.173,0.051-0.263,0.04c-2.681-0.285-4.456-1.317-4.9-2.93
			c-0.379-1.38,0.366-2.925,1.774-3.668c0.053-0.028,0.1-0.066,0.138-0.113c0.039-0.045,0.066-0.101,0.083-0.156
			c0.019-0.058,0.024-0.117,0.019-0.177c-0.007-0.061-0.024-0.118-0.052-0.171c-0.029-0.053-0.066-0.1-0.113-0.138
			c-0.046-0.038-0.101-0.065-0.158-0.084c-0.057-0.018-0.117-0.023-0.178-0.018c-0.06,0.005-0.117,0.023-0.17,0.051
			c-1.78,0.948-2.716,2.933-2.223,4.714c0.644,2.334,3.376,3.682,7.383,3.682c0.202,0,0.414-0.008,0.621-0.017
			c0.875,0.54,1.885,0.825,2.913,0.825c1.029,0,2.036-0.285,2.914-0.825c0.208,0.009,0.419,0.017,0.621,0.017
			c4.008,0,6.742-1.348,7.384-3.681c0.491-1.784-0.445-3.767-2.223-4.715c-0.052-0.027-0.111-0.046-0.17-0.051
			c-0.06-0.006-0.12,0-0.178,0.018C5.542,21.371,5.49,21.4,5.443,21.438c-0.046,0.038-0.084,0.086-0.112,0.138
			c-0.03,0.053-0.046,0.112-0.052,0.171c-0.005,0.058,0,0.119,0.018,0.177s0.045,0.111,0.085,0.156
			c0.038,0.047,0.084,0.085,0.138,0.113c1.407,0.747,2.153,2.288,1.774,3.668c-0.445,1.609-2.21,2.641-4.878,2.924
			c-0.093,0.011-0.185-0.005-0.271-0.04c-0.085-0.04-0.155-0.101-0.211-0.176c-0.052-0.076-0.084-0.165-0.091-0.256
			c-0.007-0.094,0.011-0.187,0.053-0.271c0.553-1.03,0.82-2.668,0.267-4.47c-0.432-1.397-0.363-2.494,0.198-3.262
			c0.897-1.221,2.818-1.328,3.387-1.328h0.034c3.276,0,6.905,2.362,7.655,7.655c0.178,1.279,0.556,3.937,2.94,3.743l0.464-0.038
			c0.087-0.01,0.175,0.004,0.255,0.037c0.081,0.032,0.153,0.087,0.208,0.153c0.056,0.069,0.094,0.151,0.111,0.236
			c0.016,0.085,0.013,0.174-0.014,0.258V31.03z M18.581,26.187c-0.49,1.888-1.306,2.973-2.295,3.056
			c-0.946,0.076-1.408-0.669-1.701-2.755c-0.848-6.001-5.052-8.659-8.84-8.646c-0.9,0.005-3.128,0.189-4.31,1.799
			c-0.792,1.077-0.917,2.519-0.373,4.285c0.474,1.536,0.331,2.88-0.412,3.887c-0.742,1.003-2.067,1.634-3.395,1.634
			c-1.328,0-2.662-0.644-3.393-1.634c-0.733-0.996-0.888-2.353-0.414-3.887c0.544-1.766,0.42-3.208-0.372-4.285
			c-1.183-1.609-3.406-1.794-4.309-1.799h-0.042c-3.778,0-7.953,2.669-8.796,8.646c-0.295,2.086-0.755,2.831-1.702,2.755
			c-0.99-0.083-1.804-1.168-2.297-3.056c-0.91-4.519-1.483-9.984-0.531-14.207h-0.012c0.352-1.281,0.786-2.537,1.301-3.763
			c1.179-2.792,2.803-5.35,4.855-7.442c2.023-2.083,4.475-3.703,7.186-4.747c1.348-0.519,2.745-0.9,4.169-1.139
			c2.882-0.486,5.826-0.486,8.709,0c1.424,0.238,2.821,0.62,4.169,1.139c2.71,1.044,5.162,2.664,7.184,4.747
			c2.051,2.091,3.675,4.649,4.855,7.442c0.517,1.225,0.95,2.48,1.303,3.763h-0.012c0.958,4.221,0.387,9.685-0.525,14.203v0.004
			H18.581z"/>
	</g>
</g>
</svg>
